<svg width="1254" height="1254" viewBox="0 0 1254 1254" xmlns="http://www.w3.org/2000/svg">
  <path
    d="M935.335 302.25c-1.108 1.238-18.647 21.825-38.976 45.75-38.022 44.748-84.205 99.08-108.847 128.054-32.966 38.76-62.512 74.02-62.512 74.599 0 .344 2.587 3.565 5.75 7.158 5.391 6.125 22.607 26.175 148.139 172.529 27.286 31.813 49.761 58.25 49.944 58.75.195.533-11.282.91-27.675.91h-28.01l-19.811-23.25C829.185 738.405 752.078 648.483 739.506 634c-5.013-5.775-16.231-18.825-24.929-29s-16.381-19.104-17.073-19.841c-1.031-1.1-6.071 4.26-27.978 29.755l-26.721 31.097-87.152-.256-87.153-.255-.271-20.25-.27-20.25H622.5l22.5-26.656c12.375-14.661 22.5-27.017 22.5-27.457s-9.675-11.262-21.5-24.045-25.325-27.421-30-32.527l-8.5-9.284-69.75-.015L468 485v-40h160.786l29.884 31.75c16.437 17.462 31.685 33.702 33.884 36.087l3.999 4.338 13.526-15.838c7.44-8.71 28.997-34.062 47.904-56.337s39.205-46.125 45.105-53c19.827-23.103 35.433-41.465 39.307-46.25l3.846-4.75-5.371-.002c-17.132-.008-445.024-.014-448.122-.007l-3.753.009.253 204.25.252 204.25 206.131.252 206.131.253 16.619 19.46c9.14 10.702 16.619 19.701 16.619 19.997S725.425 790 591.5 790H348V300h589.349z"
    fill="#FFFFFF"
    fill-rule="evenodd"
  />
</svg>