<svg
  xmlns="http://www.w3.org/2000/svg"
  viewBox="69 59 304 304"
  role="img"
  aria-label="Logo"
>
  <!-- Blue square with 30 units of padding -->
  <rect
    x="69"
    y="59"
    width="304"
    height="304"
    fill="#0672EF"
  />

  <!-- White logo -->
  <path
    fill="#FFFFFF"
    d="M135.405884,216.487396
    C143.242584,214.956146 150.658066,213.507263 158.073547,212.058365
    C158.077698,211.599045 158.081863,211.139709 158.086014,210.680389
    C154.921448,209.784760 151.795837,208.703705 148.584778,208.029480
    C140.108032,206.249588 131.604156,204.592957 123.088951,203.005997
    C120.642876,202.550140 119.299271,201.732803 119.309662,198.869431
    C119.415352,169.717026 119.401680,140.564194 119.439438,111.411507
    C119.440048,110.936981 119.666435,110.462753 119.926666,109.442772
    C121.381920,109.339142 122.964165,109.129349 124.546562,109.128212
    C152.200455,109.108269 179.855087,109.212540 207.507507,109.010223
    C211.779770,108.978973 213.231506,110.352432 213.888733,114.440910
    C215.553665,124.798073 217.712234,135.076172 219.697876,145.381165
    C219.998001,146.938828 220.430756,148.470917 221.847885,150.016968
    C222.200958,148.330353 222.579605,146.648621 222.902908,144.956329
    C224.934738,134.320847 227.015961,123.694122 228.934814,113.038216
    C229.419724,110.345390 230.340240,109.046417 233.397644,109.057594
    C261.884125,109.161789 290.371277,109.159378 318.857788,109.061142
    C322.146179,109.049805 323.159119,110.173721 323.148621,113.402634
    C323.056519,141.722595 323.046631,170.043182 323.164093,198.362961
    C323.177795,201.664536 321.718750,202.605942 318.863953,203.134689
    C308.873291,204.985062 298.915436,207.013626 288.950439,209.001083
    C287.269348,209.336365 285.614410,209.802979 283.947388,210.208923
    C283.929169,210.650055 283.910950,211.091171 283.892761,211.532288
    C285.165527,211.934570 286.413422,212.463882 287.715057,212.718994
    C298.013245,214.737503 308.296906,216.849777 318.640564,218.605988
    C322.203430,219.210907 323.188446,220.726532 323.172028,224.220520
    C323.041260,252.040405 323.019104,279.861633 323.182770,307.681183
    C323.207153,311.829346 321.994476,313.038361 317.840912,313.012939
    C290.188049,312.843414 262.533203,312.847412 234.880264,313.012268
    C230.995071,313.035431 229.346283,312.030548 228.698135,308.030396
    C226.993591,297.510529 224.810776,287.067932 222.798019,276.598480
    C222.499695,275.046722 222.090530,273.516266 220.807861,271.955322
    C220.400116,273.654266 219.924728,275.340240 219.595718,277.054352
    C217.554565,287.687897 215.518677,298.322662 213.549118,308.969635
    C213.124451,311.265259 212.673492,312.979340 209.637085,312.968109
    C180.151779,312.859009 150.666046,312.870575 121.180450,312.834595
    C120.861809,312.834198 120.543381,312.658875 119.674316,312.403351
    C119.579468,310.998657 119.378403,309.399658 119.377357,307.800568
    C119.359253,279.980072 119.448845,252.159058 119.271011,224.339722
    C119.246269,220.469711 120.529945,218.992615 124.179497,218.572876
    C127.809998,218.155319 131.385223,217.257156 135.405884,216.487396z"
  />
</svg>